<?xml version="1.0" encoding="utf-8"?>
<!-- Generator: Adobe Illustrator 18.1.1, SVG Export Plug-In . SVG Version: 6.00 Build 0)  -->
<svg version="1.1" id="Layer_1" xmlns="http://www.w3.org/2000/svg" xmlns:xlink="http://www.w3.org/1999/xlink" x="0px" y="0px"
	 width="86.7px" height="57.2px" viewBox="0 0 86.7 57.2" enable-background="new 0 0 86.7 57.2" xml:space="preserve">
<g>
	<g>
		<g>
			<g>
				<path fill="#F6A548" d="M43.3,57.2c-1,0-2-0.1-3-0.4c-3.3-0.8-6-2.8-7.7-5.7c-1.7-2.9-2.2-6.2-1.4-9.5c0.8-3.3,2.8-6,5.7-7.7
					c2.9-1.7,6.2-2.2,9.5-1.4c0.8,0.2,1.3,1,1.1,1.8c-0.2,0.8-1,1.3-1.8,1.1c-2.5-0.6-5-0.2-7.2,1.1c-2.2,1.3-3.7,3.4-4.4,5.9
					c-0.6,2.5-0.2,5,1.1,7.2c1.3,2.2,3.4,3.7,5.9,4.4c5.1,1.3,10.3-1.8,11.6-7c0.5-2.1,0.3-4.2-0.5-6.2c-0.3-0.8,0-1.6,0.8-2
					c0.8-0.3,1.6,0,2,0.8c1.1,2.6,1.4,5.4,0.7,8.1C54.1,53.4,49,57.2,43.3,57.2z"/>
			</g>
		</g>
		<g>
			<polygon fill="#F6A548" points="45.7,44.1 40.9,44.1 40.9,40.4 39.7,40.4 39.7,48.9 40.9,48.9 40.9,45.2 45.7,45.2 45.7,48.9 
				46.9,48.9 46.9,40.4 45.7,40.4 			"/>
		</g>
	</g>
	<g>
		<g>
			<path fill="#F6A548" d="M83.6,57.2H65c-2,0-3.1-1.6-3.1-3.1V35.4c0-2,1.6-3.1,3.1-3.1h18.7c2,0,3.1,1.6,3.1,3.1v18.7
				C86.7,56.1,85.1,57.2,83.6,57.2z"/>
		</g>
		<g>
			<path fill="#FFFFFF" d="M64.5,49v-8.3h2.8c2.6,0,4.3,1.8,4.3,4.2c0,2.4-1.7,4.1-4.3,4.1H64.5z M70.5,44.8c0-1.8-1.1-3.2-3.2-3.2
				h-1.8V48h1.8C69.4,48,70.5,46.6,70.5,44.8z"/>
			<path fill="#FFFFFF" d="M72.1,46c0-1.8,1.2-3.1,3-3.1c1.1,0,1.7,0.4,2.2,1l-0.6,0.6c-0.4-0.5-0.9-0.8-1.5-0.8
				c-1.3,0-2.1,1-2.1,2.3c0,1.3,0.8,2.3,2.1,2.3c0.6,0,1.1-0.2,1.5-0.8l0.6,0.6c-0.5,0.6-1.1,1-2.2,1C73.3,49.1,72.1,47.7,72.1,46z"
				/>
			<path fill="#FFFFFF" d="M83.6,49L81,45.4L78.3,49h-1.3l3.2-4.3l-3-4h1.3L81,44l2.5-3.3h1.3l-3,4l3.2,4.3H83.6z"/>
		</g>
	</g>
	<g>
		<g>
			<path fill="#003594" d="M12.8,57.1C5.7,57.1,0,51.4,0,44.3c0-7.1,5.7-12.8,12.8-12.8c1,0,1.9,0.8,1.9,1.9c0,1-0.8,1.9-1.9,1.9
				c-5,0-9.1,4.1-9.1,9.1c0,5,4.1,9.1,9.1,9.1c5,0,9.1-4.1,9.1-9.1c0-2-0.7-4-1.9-5.6c-0.6-0.8-0.5-2,0.3-2.6c0.8-0.6,2-0.5,2.6,0.3
				c1.8,2.3,2.7,5,2.7,7.9C25.6,51.4,19.9,57.1,12.8,57.1z"/>
		</g>
		<g>
			<path fill="#778692" d="M11.3,46l-0.6,0.6c0.1-0.8,0.6-1.8,0.6-1.8l1.7-3.7l2.4-5l3.2-6.2l3.3-6.3l3.5-6.4c0,0,2.4-4.1,3.3-5.4
				c1.4-2.2,3.5-4.7,4.5-5.8c4.1-5.3,14.1-8.5,21.2-4.1c0,0-4.5,0.7-7.7,2.4c0,0-4,1.8-7.9,7.9c0,0-0.9,1.4-1.6,2.4
				c0,0-1.1,1.6-3.3,1.9c0,0-4,0.5-4.6,1c0,0,2.9-0.1,5,1c0,0-7,0.9-7.1,1.8c0,0,3.2-0.6,5.1,0.8c-5.7,1.4-7.9,3-9.5,4.7
				c-1.3,1.4-0.9,1-1.9,2.5c-1.2,1.9-3,5-4.5,8.2c-1.7,3.5-3.2,6.5-3.4,7c0,0-0.4,0.8-0.6,1.1c-0.2,0.3-0.2,0.2-0.5,0.5
				C11.6,45.6,11.6,45.7,11.3,46"/>
		</g>
	</g>
</g>
</svg>
